<?xml version="1.0" standalone="no"?>
<!DOCTYPE svg PUBLIC "-//W3C//DTD SVG 20010904//EN"
 "http://www.w3.org/TR/2001/REC-SVG-20010904/DTD/svg10.dtd">
<svg version="1.0" xmlns="http://www.w3.org/2000/svg"
 width="260.000000pt" height="260.000000pt" viewBox="0 0 260.000000 260.000000"
 preserveAspectRatio="xMidYMid meet">
<metadata>
Created by potrace 1.11, written by Peter Selinger 2001-2013
</metadata>
<g transform="translate(0.000000,260.000000) scale(0.100000,-0.100000)"
fill="#000000" stroke="none">
<path d="M1437 1972 l-287 -287 293 -293 292 -292 290 290 290 290 -290 290
c-159 160 -292 290 -295 290 -3 0 -134 -129 -293 -288z m445 -13 c26 -14 48
-67 41 -102 -7 -34 -56 -77 -89 -77 -91 0 -133 101 -69 166 26 26 81 32 117
13z m-283 -305 c26 -21 31 -33 31 -69 0 -36 -5 -48 -31 -69 -82 -69 -194 18
-145 112 30 59 93 70 145 26z"/>
<path d="M332 1147 l-242 -242 0 -140 0 -140 98 -98 97 -97 145 0 145 0 95 95
95 95 530 0 530 0 340 340 340 340 -190 0 -190 0 -195 -195 -195 -195 -290 0
-290 0 -95 95 -95 95 283 0 c155 0 282 3 282 8 0 4 -62 69 -138 145 l-137 137
-340 0 -340 0 -243 -243z"/>
</g>
</svg>
